<svg width="64" height="64" viewBox="0 0 64 64" fill="none" xmlns="http://www.w3.org/2000/svg">
<path d="M5.20504 13.5676C3.65223 15.1204 3.65223 17.638 5.20504 19.1908L23.9427 37.9284C23.9448 37.9306 23.947 37.9327 23.9491 37.9349L30.2346 44.2203H18.8817C15.568 44.2203 12.8817 46.9066 12.8817 50.2203C12.8817 51.3249 13.7771 52.2203 14.8817 52.2203H41.503C44.5982 52.5679 47.8172 51.5549 50.1908 49.1813L57.6884 41.6837C61.8293 37.5429 61.8293 30.8292 57.6884 26.6884L50.2019 19.2019C50.1983 19.1982 50.1945 19.1945 50.1908 19.1908L43.6304 12.6303C42.0776 11.0775 39.56 11.0775 38.0072 12.6303C36.4562 14.1813 36.4544 16.6947 38.0016 18.248L36.1328 16.3791C34.58 14.8263 32.0624 14.8263 30.5096 16.3791C28.9567 17.9319 28.9567 20.4495 30.5096 22.0024L32.3212 23.814L29.5723 21.0652C28.0195 19.5124 25.5019 19.5124 23.9491 21.0652C22.3986 22.6157 22.3963 25.1282 23.9423 26.6816L26.7552 29.4945L10.8283 13.5676C9.27546 12.0147 6.75785 12.0147 5.20504 13.5676Z" fill="white" fill-opacity="0.5" stroke="white" stroke-width="2" stroke-linejoin="round"/>
</svg>
