<svg width="88" height="53" viewBox="0 0 88 53" fill="none" xmlns="http://www.w3.org/2000/svg">
<path d="M36.3608 33.4728C39.5019 37.7264 43.4938 38.0536 45.457 38.0536C49.6451 38.0536 52.9171 36.4176 55.0766 34.389C56.7127 32.8184 59.5266 29.3501 59.5266 22.937C59.5266 17.3091 57.3671 13.7753 55.273 11.6813C52.0664 8.4747 48.0746 7.88574 45.5878 7.88574C40.3526 7.88574 37.6041 10.6997 36.3608 12.4665V8.8019H28.3771V52.1232H36.3608V33.4728ZM43.4283 14.9533C45.3261 14.9533 47.4202 15.6731 48.8598 16.9819C50.4304 18.487 51.2811 20.8429 51.2811 22.937C51.2811 25.031 50.4958 27.3869 48.7944 28.9575C47.7474 29.9391 46.0459 30.9861 43.4283 30.9861C40.9416 30.9861 39.2401 30.0045 38.1931 29.0883C36.6225 27.7141 35.5755 25.5546 35.5755 22.937C35.5755 20.3194 36.4917 18.3562 38.2585 16.851C39.6982 15.5422 41.3342 14.9533 43.4283 14.9533Z" fill="#222222"/>
<path d="M24.1106 16.8568V8.86295H16.1168V0.869049H8.12286V8.86295H0.128963V16.8568H8.12286V32.3117H16.1168V16.8568H24.1106Z" fill="#222222"/>
<path d="M24.1107 32.3116H16.1168V40.3055H24.1107V32.3116Z" fill="#222222"/>
<rect x="87.2006" y="39.3066" width="7.99891" height="29.674" transform="rotate(90 87.2006 39.3066)" fill="#14E1CA"/>
</svg>
